<?xml version="1.0" standalone="no"?>
<!DOCTYPE svg PUBLIC "-//W3C//DTD SVG 20010904//EN"
 "http://www.w3.org/TR/2001/REC-SVG-20010904/DTD/svg10.dtd">
<svg version="1.0" xmlns="http://www.w3.org/2000/svg"
 width="700.000000pt" height="700.000000pt" viewBox="0 0 700.000000 700.000000"
 preserveAspectRatio="xMidYMid meet">
<metadata>
Created by potrace 1.14, written by Peter Selinger 2001-2017
</metadata>
<g transform="translate(0.000000,700.000000) scale(0.100000,-0.100000)"
fill="#000000" stroke="none">
<path d="M2234 6840 c-33 -9 -74 -24 -93 -34 -79 -42 -175 -157 -229 -276 -38
-84 -94 -276 -107 -370 -4 -24 -8 -47 -10 -50 -1 -3 -6 -32 -10 -65 -8 -65 -8
-68 -21 -195 -11 -106 -11 -668 -1 -810 10 -133 23 -259 32 -310 3 -15 17
-122 20 -145 9 -83 77 -419 100 -495 3 -11 -19 -36 -63 -73 -229 -190 -448
-471 -580 -742 -82 -168 -155 -368 -178 -485 -3 -14 -9 -41 -14 -60 -14 -53
-40 -207 -48 -285 -4 -38 -7 -257 -7 -485 0 -392 1 -421 23 -517 46 -209 126
-405 233 -568 29 -44 55 -82 58 -85 3 -3 24 -27 46 -55 176 -221 452 -411 731
-504 213 -71 316 -83 712 -85 376 -1 560 6 682 29 14 3 39 7 55 10 116 20 219
47 343 90 132 46 262 103 364 161 91 51 265 168 313 209 17 14 57 49 90 78
119 102 365 390 365 426 0 5 4 11 8 13 21 8 143 239 193 365 65 163 92 264
134 498 31 179 23 505 -20 725 -23 120 -94 358 -115 385 -5 6 51 71 136 158
232 238 433 486 580 712 84 130 216 396 288 580 16 39 32 79 37 90 28 64 127
372 144 449 2 10 9 33 15 50 16 49 65 283 75 356 3 25 8 52 10 60 2 8 7 40 10
70 4 30 9 69 12 85 2 17 5 109 7 205 4 255 -22 412 -94 566 -84 176 -203 274
-385 313 -245 54 -539 -36 -921 -281 -65 -42 -282 -202 -294 -217 -3 -4 -18
-17 -35 -30 -92 -71 -335 -305 -460 -445 -38 -43 -75 -84 -80 -90 -6 -6 -40
-47 -76 -91 -157 -194 -287 -393 -382 -585 -18 -36 -34 -67 -37 -70 -3 -3 -19
-35 -36 -72 l-31 -67 -40 122 c-44 133 -104 296 -135 367 -11 25 -31 72 -45
105 -52 122 -195 410 -254 513 -182 316 -397 590 -564 718 -163 125 -318 171
-451 134z"/>
</g>
</svg>
